<?xml version="1.0" encoding="UTF-8" standalone="no"?>
<!-- Created with Inkscape (http://www.inkscape.org/) -->

<svg
   width="100"
   height="100"
   viewBox="0 0 26.458333 26.458333"
   version="1.1"
   id="svg5"
   inkscape:version="1.2.2 (b0a8486541, 2022-12-01)"
   sodipodi:docname="favicon.svg"
   xmlns:inkscape="http://www.inkscape.org/namespaces/inkscape"
   xmlns:sodipodi="http://sodipodi.sourceforge.net/DTD/sodipodi-0.dtd"
   xmlns="http://www.w3.org/2000/svg"
   xmlns:svg="http://www.w3.org/2000/svg">
  <sodipodi:namedview
     id="namedview7"
     pagecolor="#ffffff"
     bordercolor="#666666"
     borderopacity="1.0"
     inkscape:showpageshadow="2"
     inkscape:pageopacity="0.0"
     inkscape:pagecheckerboard="0"
     inkscape:deskcolor="#d1d1d1"
     inkscape:document-units="mm"
     showgrid="false"
     inkscape:zoom="4.0321151"
     inkscape:cx="77.750757"
     inkscape:cy="53.197886"
     inkscape:window-width="922"
     inkscape:window-height="915"
     inkscape:window-x="0"
     inkscape:window-y="0"
     inkscape:window-maximized="1"
     inkscape:current-layer="layer1" />
  <defs
     id="defs2">
    <rect
       x="12.875144"
       y="28.419289"
       width="87.084025"
       height="84.699847"
       id="rect113" />
  </defs>
  <g
     inkscape:label="Layer 1"
     inkscape:groupmode="layer"
     id="layer1">
    <g
       aria-label="ยง"
       transform="matrix(0.62788466,0,0,0.62788466,-1.4782088,-18.436643)"
       id="text111"
       style="font-weight:800;font-size:40px;line-height:1.25;font-family:Voll;-inkscape-font-specification:'Voll Ultra-Bold';letter-spacing:0px;white-space:pre;shape-inside:url(#rect113);display:inline">
      <path
         d="m 30.160156,35.255859 v 4.433594 q -1.933594,-0.761719 -3.476562,-1.132812 -1.542969,-0.390625 -2.65625,-0.390625 -1.464844,0 -2.207032,0.488281 -0.742187,0.46875 -0.742187,1.386719 0,1.308593 3.671875,2.851562 0.507812,0.214844 0.761719,0.3125 4.101562,1.738281 5.644531,3.4375 1.5625,1.679688 1.5625,4.121094 0,2.285156 -1.113281,3.847656 -1.09375,1.542969 -3.378907,2.480469 1.503907,0.800781 2.226563,1.914062 0.742187,1.09375 0.742187,2.519532 0,2.832031 -2.363281,4.453125 -2.363281,1.640625 -6.523437,1.640625 -1.660157,0 -3.4375,-0.292969 -1.757813,-0.273438 -3.75,-0.839844 v -4.628906 q 2.246093,0.800781 4.023437,1.230469 1.777344,0.410156 2.890625,0.410156 1.269531,0 2.03125,-0.488281 0.761719,-0.488282 0.761719,-1.269532 0,-1.367187 -3.515625,-2.8125 -0.703125,-0.273437 -1.074219,-0.429687 -3.964844,-1.699219 -5.527343,-3.4375 -1.5625,-1.757813 -1.5625,-4.296875 0,-2.03125 1.074218,-3.535156 1.09375,-1.503907 3.300781,-2.5 -1.464843,-0.996094 -2.109374,-2.070313 -0.625,-1.09375 -0.625,-2.558594 0,-2.8125 2.226562,-4.394531 2.246094,-1.582031 6.171875,-1.582031 1.640625,0 3.398437,0.292969 1.757813,0.273437 3.574219,0.839843 z m -8.808594,11.835938 q -1.328125,0.546875 -1.992187,1.289062 -0.644531,0.742188 -0.644531,1.71875 0,1.308594 1.191406,2.265625 1.210937,0.957032 4.765625,2.246094 1.269531,-0.449219 1.953125,-1.210937 0.683594,-0.78125 0.683594,-1.796875 0,-1.308594 -1.347657,-2.34375 -1.347656,-1.035157 -4.609375,-2.167969 z"
         style="font-weight:900;font-family:'Vollkorn SC';-inkscape-font-specification:'Vollkorn SC Heavy'"
         id="path302" />
    </g>
  </g>
</svg>
